<svg width="240" height="240" viewBox="0 0 240 240" fill="none" xmlns="http://www.w3.org/2000/svg">
<path d="M102.9 38.6L18.1997 180C16.4534 183.024 15.5294 186.453 15.5196 189.945C15.5098 193.437 16.4146 196.871 18.144 199.905C19.8733 202.939 22.367 205.467 25.3768 207.238C28.3866 209.01 31.8077 209.962 35.2997 210H204.7C208.192 209.962 211.613 209.01 214.623 207.238C217.632 205.467 220.126 202.939 221.855 199.905C223.585 196.871 224.49 193.437 224.48 189.945C224.47 186.453 223.546 183.024 221.8 180L137.1 38.6C135.317 35.661 132.807 33.2312 129.812 31.5448C126.816 29.8585 123.437 28.9725 120 28.9725C116.562 28.9725 113.183 29.8585 110.188 31.5448C107.193 33.2312 104.682 35.661 102.9 38.6V38.6Z" stroke="#1A79E5" stroke-width="16" stroke-linecap="round" stroke-linejoin="round"/>
<path d="M120 90V130" stroke="#1A79E5" stroke-width="16" stroke-linecap="round" stroke-linejoin="round"/>
<path d="M120 170H120.1" stroke="#1A79E5" stroke-width="16" stroke-linecap="round" stroke-linejoin="round"/>
</svg>
