<svg width="24" height="25" viewBox="0 0 24 25" fill="none" xmlns="http://www.w3.org/2000/svg">
<g clip-path="url(#clip0_165_27638)">
<path d="M12 15.3672C13.6569 15.3672 15 14.024 15 12.3672C15 10.7103 13.6569 9.36719 12 9.36719C10.3431 9.36719 9 10.7103 9 12.3672C9 14.024 10.3431 15.3672 12 15.3672Z" stroke="#25282B" stroke-width="2" stroke-linecap="round" stroke-linejoin="round"/>
<path d="M19.4 15.3672C19.2669 15.6688 19.2272 16.0034 19.286 16.3278C19.3448 16.6522 19.4995 16.9515 19.73 17.1872L19.79 17.2472C19.976 17.4329 20.1235 17.6535 20.2241 17.8963C20.3248 18.1391 20.3766 18.3994 20.3766 18.6622C20.3766 18.925 20.3248 19.1853 20.2241 19.4281C20.1235 19.6709 19.976 19.8914 19.79 20.0772C19.6043 20.2631 19.3837 20.4107 19.1409 20.5113C18.8981 20.612 18.6378 20.6638 18.375 20.6638C18.1122 20.6638 17.8519 20.612 17.6091 20.5113C17.3663 20.4107 17.1457 20.2631 16.96 20.0772L16.9 20.0172C16.6643 19.7867 16.365 19.632 16.0406 19.5732C15.7162 19.5144 15.3816 19.5541 15.08 19.6872C14.7842 19.814 14.532 20.0244 14.3543 20.2927C14.1766 20.561 14.0813 20.8754 14.08 21.1972V21.3672C14.08 21.8976 13.8693 22.4063 13.4942 22.7814C13.1191 23.1565 12.6104 23.3672 12.08 23.3672C11.5496 23.3672 11.0409 23.1565 10.6658 22.7814C10.2907 22.4063 10.08 21.8976 10.08 21.3672V21.2772C10.0723 20.9462 9.96512 20.6252 9.77251 20.3559C9.5799 20.0866 9.31074 19.8815 9 19.7672C8.69838 19.6341 8.36381 19.5944 8.03941 19.6532C7.71502 19.712 7.41568 19.8667 7.18 20.0972L7.12 20.1572C6.93425 20.3431 6.71368 20.4907 6.47088 20.5913C6.22808 20.692 5.96783 20.7438 5.705 20.7438C5.44217 20.7438 5.18192 20.692 4.93912 20.5913C4.69632 20.4907 4.47575 20.3431 4.29 20.1572C4.10405 19.9714 3.95653 19.7509 3.85588 19.5081C3.75523 19.2653 3.70343 19.005 3.70343 18.7422C3.70343 18.4794 3.75523 18.2191 3.85588 17.9763C3.95653 17.7335 4.10405 17.5129 4.29 17.3272L4.35 17.2672C4.58054 17.0315 4.73519 16.7322 4.794 16.4078C4.85282 16.0834 4.81312 15.7488 4.68 15.4472C4.55324 15.1514 4.34276 14.8992 4.07447 14.7215C3.80618 14.5438 3.49179 14.4485 3.17 14.4472H3C2.46957 14.4472 1.96086 14.2365 1.58579 13.8614C1.21071 13.4863 1 12.9776 1 12.4472C1 11.9168 1.21071 11.408 1.58579 11.033C1.96086 10.6579 2.46957 10.4472 3 10.4472H3.09C3.42099 10.4394 3.742 10.3323 4.0113 10.1397C4.28059 9.94709 4.48572 9.67792 4.6 9.36719C4.73312 9.06557 4.77282 8.73099 4.714 8.4066C4.65519 8.0822 4.50054 7.78287 4.27 7.54719L4.21 7.48719C4.02405 7.30144 3.87653 7.08086 3.77588 6.83807C3.67523 6.59527 3.62343 6.33502 3.62343 6.07219C3.62343 5.80936 3.67523 5.5491 3.77588 5.30631C3.87653 5.06351 4.02405 4.84293 4.21 4.65719C4.39575 4.47123 4.61632 4.32372 4.85912 4.22307C5.10192 4.12242 5.36217 4.07061 5.625 4.07061C5.88783 4.07061 6.14808 4.12242 6.39088 4.22307C6.63368 4.32372 6.85425 4.47123 7.04 4.65719L7.1 4.71719C7.33568 4.94772 7.63502 5.10237 7.95941 5.16119C8.28381 5.22001 8.61838 5.1803 8.92 5.04719H9C9.29577 4.92042 9.54802 4.70994 9.72569 4.44165C9.90337 4.17336 9.99872 3.85897 10 3.53719V3.36719C10 2.83675 10.2107 2.32805 10.5858 1.95297C10.9609 1.5779 11.4696 1.36719 12 1.36719C12.5304 1.36719 13.0391 1.5779 13.4142 1.95297C13.7893 2.32805 14 2.83675 14 3.36719V3.45719C14.0013 3.77897 14.0966 4.09336 14.2743 4.36165C14.452 4.62994 14.7042 4.84042 15 4.96719C15.3016 5.1003 15.6362 5.14001 15.9606 5.08119C16.285 5.02237 16.5843 4.86772 16.82 4.63719L16.88 4.57719C17.0657 4.39123 17.2863 4.24372 17.5291 4.14307C17.7719 4.04242 18.0322 3.99061 18.295 3.99061C18.5578 3.99061 18.8181 4.04242 19.0609 4.14307C19.3037 4.24372 19.5243 4.39123 19.71 4.57719C19.896 4.76293 20.0435 4.98351 20.1441 5.22631C20.2448 5.4691 20.2966 5.72936 20.2966 5.99219C20.2966 6.25502 20.2448 6.51527 20.1441 6.75807C20.0435 7.00086 19.896 7.22144 19.71 7.40719L19.65 7.46719C19.4195 7.70287 19.2648 8.0022 19.206 8.3266C19.1472 8.65099 19.1869 8.98557 19.32 9.28719V9.36719C19.4468 9.66296 19.6572 9.9152 19.9255 10.0929C20.1938 10.2706 20.5082 10.3659 20.83 10.3672H21C21.5304 10.3672 22.0391 10.5779 22.4142 10.953C22.7893 11.328 23 11.8368 23 12.3672C23 12.8976 22.7893 13.4063 22.4142 13.7814C22.0391 14.1565 21.5304 14.3672 21 14.3672H20.91C20.5882 14.3685 20.2738 14.4638 20.0055 14.6415C19.7372 14.8192 19.5268 15.0714 19.4 15.3672V15.3672Z" stroke="#25282B" stroke-width="2" stroke-linecap="round" stroke-linejoin="round"/>
</g>
<defs>
<clipPath id="clip0_165_27638">
<rect width="24" height="24" fill="white" transform="translate(0 0.367188)"/>
</clipPath>
</defs>
</svg>
